<svg width="48" height="48" viewBox="0 0 48 48" fill="none" xmlns="http://www.w3.org/2000/svg">
<path fill-rule="evenodd" clip-rule="evenodd" d="M24 48C37.2548 48 48 37.2548 48 24C48 10.7452 37.2548 0 24 0C10.7452 0 0 10.7452 0 24C0 37.2548 10.7452 48 24 48Z" fill="#1666F8"/>
<path d="M21.5395 23.3286C21.5395 23.3286 23.9522 23.1456 23.9522 20.2544C23.9522 17.363 21.9783 15.9519 19.478 15.9519H11.2502V32.1094H19.478C19.478 32.1094 24.5007 32.2716 24.5007 27.3405C24.5007 27.3405 24.7197 23.3286 21.5395 23.3286ZM18.8857 18.8237H19.478C19.478 18.8237 20.5963 18.8237 20.5963 20.5048C20.5963 22.1858 19.9386 22.4295 19.1926 22.4295H14.8754V18.8237H18.8857ZM19.2455 29.2377H14.8754V24.9198H19.478C19.478 24.9198 21.1449 24.8975 21.1449 27.1388C21.1449 29.0287 19.8998 29.2234 19.2455 29.2377ZM31.1994 20.0629C25.1188 20.0629 25.1242 26.2711 25.1242 26.2711C25.1242 26.2711 24.707 32.4474 31.1994 32.4474C31.1994 32.4474 36.6097 32.7633 36.6097 28.1509H33.8273C33.8273 28.1509 33.9201 29.8878 31.2922 29.8878C31.2922 29.8878 28.5093 30.0784 28.5093 27.0768H36.7025C36.7025 27.0768 37.599 20.0629 31.1994 20.0629ZM28.4788 24.9198C28.4788 24.9198 28.8185 22.4294 31.2612 22.4294C33.7034 22.4294 33.6728 24.9198 33.6728 24.9198H28.4788ZM34.321 18.8935H27.7976V16.9038H34.321V18.8935Z" fill="white"/>
</svg>
