<svg width="48" height="48" viewBox="0 0 48 48" fill="none" xmlns="http://www.w3.org/2000/svg">
<path fill-rule="evenodd" clip-rule="evenodd" d="M24 48C37.2548 48 48 37.2548 48 24C48 10.7452 37.2548 0 24 0C10.7452 0 0 10.7452 0 24C0 37.2548 10.7452 48 24 48Z" fill="url(#paint0_linear_271_7845)"/>
<path fill-rule="evenodd" clip-rule="evenodd" d="M24 18C20.6863 18 18 20.6863 18 24C18 27.3137 20.6863 30 24 30C27.3137 30 30 27.3137 30 24C30 20.6863 27.3137 18 24 18ZM20.25 24C20.25 26.0711 21.9289 27.75 24 27.75C26.0711 27.75 27.75 26.0711 27.75 24C27.75 21.9289 26.0711 20.25 24 20.25C21.9289 20.25 20.25 21.9289 20.25 24Z" fill="white"/>
<path d="M30.2988 16.0488C29.4704 16.0488 28.7988 16.7204 28.7988 17.5488C28.7988 18.3773 29.4704 19.0488 30.2988 19.0488C31.1273 19.0488 31.7988 18.3773 31.7988 17.5488C31.7988 16.7204 31.1273 16.0488 30.2988 16.0488Z" fill="white"/>
<path fill-rule="evenodd" clip-rule="evenodd" d="M18.75 12C15.0221 12 12 15.0221 12 18.75V29.25C12 32.9779 15.0221 36 18.75 36H29.25C32.9779 36 36 32.9779 36 29.25V18.75C36 15.0221 32.9779 12 29.25 12H18.75ZM29.25 14.25H18.75C16.2647 14.25 14.25 16.2647 14.25 18.75V29.25C14.25 31.7353 16.2647 33.75 18.75 33.75H29.25C31.7353 33.75 33.75 31.7353 33.75 29.25V18.75C33.75 16.2647 31.7353 14.25 29.25 14.25Z" fill="white"/>
<defs>
<linearGradient id="paint0_linear_271_7845" x1="48" y1="48" x2="-4.82127" y2="43.3431" gradientUnits="userSpaceOnUse">
<stop stop-color="#FEDA75"/>
<stop offset="0.234375" stop-color="#FA7E1E"/>
<stop offset="0.5" stop-color="#D62976"/>
<stop offset="0.760417" stop-color="#962FBF"/>
<stop offset="1" stop-color="#4F5BD5"/>
</linearGradient>
</defs>
</svg>
