<svg width="36" height="36" viewBox="0 0 36 36" fill="none" xmlns="http://www.w3.org/2000/svg">
<path d="M0 0H36V36H0V0Z" fill="#071013"/>
<path d="M18.8058 22.675C18.9004 22.6288 19.0032 22.5994 19.106 22.5742C19.2252 23.4267 19.3404 24.2834 19.4432 25.1401C19.3568 25.1821 19.2622 25.2114 19.1677 25.2324C18.74 24.4892 18.3288 23.7332 17.9135 22.9858C18.0163 22.9564 18.1191 22.864 18.2301 22.906C18.4933 23.3427 18.703 23.8172 18.995 24.233C18.9539 23.7122 18.8634 23.1957 18.8058 22.675L18.8058 22.675ZM19.8215 22.3265C20.2121 22.1921 20.6028 22.0493 20.9976 21.9275C21.0387 22.0241 21.0716 22.1207 21.0963 22.2215C20.9524 22.2803 20.8043 22.3264 20.6604 22.3768C20.8578 22.9773 21.0593 23.5737 21.2526 24.1742C21.3965 24.1238 21.5404 24.0692 21.6884 24.0272C21.7337 24.1196 21.7666 24.2204 21.7912 24.3253C21.4006 24.4681 21.0099 24.6067 20.6152 24.7285C20.5781 24.6319 20.5452 24.5311 20.5165 24.4303C20.6604 24.3757 20.8084 24.3295 20.9523 24.2792C20.7549 23.6787 20.5576 23.0781 20.3561 22.4776C20.2121 22.528 20.0682 22.5868 19.9202 22.6246C19.8791 22.5322 19.8503 22.4314 19.8215 22.3264L19.8215 22.3265ZM22.6507 21.348C22.7452 21.3144 22.8398 21.2808 22.9385 21.2472C23.2222 22.0451 23.4731 22.8514 23.7404 23.6534C23.6499 23.7038 23.5512 23.7332 23.4525 23.7542C23.0824 23.3175 22.7247 22.8682 22.3546 22.4314C22.515 22.9437 22.7 23.4518 22.8522 23.9684C22.7576 24.002 22.663 24.0356 22.5643 24.0692C22.2847 23.2713 22.0297 22.465 21.7624 21.6629C21.8529 21.6167 21.9475 21.5831 22.0462 21.5537C22.4204 21.9905 22.7782 22.444 23.1482 22.885C22.992 22.3726 22.8069 21.8645 22.6506 21.348L22.6507 21.348ZM24.0693 20.9322C24.3695 20.6005 24.9822 20.7391 25.1056 21.18C25.011 21.222 24.9165 21.2514 24.8219 21.2808C24.6985 20.9574 24.168 21.0414 24.2091 21.411C24.3407 21.8687 24.497 22.318 24.6533 22.7632C24.8465 23.0655 25.3153 22.8136 25.2207 22.4734C25.3153 22.4398 25.4058 22.4104 25.5045 22.381C25.8005 23.1243 24.5997 23.5737 24.3407 22.8346C24.2338 22.2215 23.6211 21.5202 24.0693 20.9322L24.0693 20.9322ZM25.6566 20.3233C26.0514 20.1889 26.442 20.042 26.8409 19.9244C26.878 20.021 26.9108 20.1176 26.9314 20.2183C26.6394 20.3233 26.3434 20.4199 26.0514 20.5249C26.1295 20.7727 26.2159 21.0204 26.2981 21.2724C26.5449 21.1926 26.7834 21.096 27.0301 21.0288C27.0712 21.1254 27.1041 21.222 27.1247 21.327C26.8862 21.4194 26.6394 21.4992 26.401 21.579C26.4791 21.8309 26.5613 22.0745 26.6477 22.3222C26.9438 22.2257 27.2316 22.1165 27.5318 22.0241C27.577 22.1207 27.6058 22.2215 27.6305 22.3222C27.244 22.4692 26.8492 22.5952 26.4544 22.7296C26.1748 21.9317 25.9199 21.1254 25.6567 20.3233L25.6566 20.3233ZM27.5852 19.6472C27.9307 19.5674 28.2966 19.2693 28.6462 19.4918C29.0739 19.6976 29.1602 20.3527 28.8189 20.676C29.0656 20.9994 29.3288 21.3143 29.5673 21.6461C29.041 21.9653 28.8518 21.117 28.5064 20.844C28.4488 20.865 28.3912 20.886 28.3336 20.9028C28.4447 21.2556 28.5722 21.5999 28.675 21.9569C28.5804 21.9905 28.4858 22.0282 28.3912 22.0576C28.1034 21.2639 27.8525 20.4535 27.5852 19.6472L27.5852 19.6472ZM27.9841 19.853C28.0622 20.1007 28.1486 20.3485 28.2308 20.6005C28.5064 20.5669 28.8065 20.3233 28.6791 20.0126C28.5721 19.7102 28.2144 19.7186 27.9841 19.853V19.853ZM29.5426 18.9837C29.9374 18.8535 30.3239 18.7023 30.7228 18.5847C30.7639 18.6813 30.7927 18.7779 30.8174 18.8787C30.5213 18.9795 30.2294 19.0845 29.9333 19.1811C30.0155 19.4288 30.0936 19.6808 30.18 19.9286C30.4226 19.8488 30.6611 19.7606 30.9037 19.6808C30.9531 19.7774 30.9942 19.8782 30.9983 19.9874C30.7598 20.0714 30.5172 20.1511 30.2787 20.2393C30.3609 20.4871 30.4431 20.7349 30.5254 20.9826C30.8215 20.886 31.1134 20.7768 31.4095 20.6803C31.4506 20.7768 31.4877 20.8776 31.5 20.9826C31.1093 21.1212 30.7187 21.264 30.3239 21.3858C30.0648 20.5879 29.7934 19.79 29.5426 18.9837L29.5426 18.9837Z" fill="white"/>
<path d="M16.12 25.9988C16.1447 25.9988 16.1899 25.9946 16.2105 25.9903C16.3133 26.2297 16.4243 26.4691 16.523 26.7127C16.449 26.7421 16.3997 26.7169 16.375 26.6455C16.3339 26.6539 16.2886 26.6622 16.2475 26.6707C16.2639 26.7504 16.2228 26.7924 16.1488 26.8008C16.1365 26.5363 16.1241 26.2675 16.12 25.9988L16.12 25.9988ZM16.2311 26.2969C16.2311 26.3893 16.2352 26.4775 16.2352 26.5699C16.2599 26.5657 16.3133 26.5531 16.3421 26.5447C16.3051 26.4649 16.2722 26.3809 16.2311 26.2969L16.2311 26.2969ZM15.5526 25.9274C15.6759 25.9652 15.7993 26.003 15.9226 26.045C15.9144 26.0701 15.9021 26.1163 15.898 26.1415C15.8075 26.1121 15.7129 26.0869 15.6225 26.0575C15.5978 26.1331 15.5772 26.2045 15.5526 26.2801C15.6266 26.3053 15.7047 26.3305 15.7787 26.3557C15.7705 26.3809 15.7541 26.4271 15.7458 26.4523C15.6718 26.4313 15.5937 26.4061 15.5196 26.3809C15.4991 26.4565 15.4744 26.5321 15.4539 26.6035C15.5443 26.6329 15.6348 26.6623 15.7253 26.6917C15.717 26.7168 15.7047 26.763 15.6965 26.7882C15.5731 26.7504 15.4497 26.7127 15.3264 26.6707C15.4004 26.4187 15.4744 26.1709 15.5525 25.9274L15.5526 25.9274ZM17.1728 25.835C16.9343 25.7216 17.2879 25.5116 17.2632 25.7762C17.2386 25.7888 17.1933 25.8182 17.1728 25.835ZM16.6053 25.7216C16.6258 25.7006 16.667 25.6628 16.6875 25.646C16.8603 25.835 17.0371 26.0197 17.2139 26.2087C17.1975 26.2255 17.1604 26.2633 17.1399 26.2801C17.0042 26.1457 16.8767 25.9945 16.741 25.8602C16.7492 25.9022 16.7698 25.9904 16.7821 26.0324C16.7246 26.0156 16.667 25.9987 16.6094 25.982C16.741 26.1247 16.8767 26.2675 17.0083 26.4103C16.9836 26.4355 16.9589 26.4565 16.9343 26.4817C16.7575 26.2969 16.5806 26.1079 16.4079 25.9232C16.4243 25.9022 16.4655 25.8644 16.4819 25.8434C16.5354 25.856 16.5889 25.8728 16.6423 25.8896C16.63 25.8308 16.6176 25.7762 16.6053 25.7216H16.6053ZM15.236 25.5956C15.3264 25.688 15.4128 25.7888 15.4991 25.8896C15.4786 25.9064 15.4416 25.94 15.421 25.9568C15.3881 25.9232 15.3552 25.8854 15.3264 25.8518C15.1619 26.003 15.0016 26.1583 14.833 26.3095C14.8165 26.2885 14.7836 26.2507 14.7672 26.2297C14.9276 26.0743 15.092 25.9273 15.2565 25.7762C15.2277 25.7383 15.1949 25.7048 15.1661 25.667C15.1825 25.646 15.2195 25.6124 15.236 25.5956L15.236 25.5956ZM17.2345 25.4864C16.9137 25.499 17.033 25.0245 17.3126 25.1799C17.5758 25.0917 17.7732 25.499 17.4401 25.5242C17.4607 25.4444 17.5388 25.4024 17.5552 25.3226C17.4277 25.289 17.0371 25.1421 17.1358 25.4024C17.1646 25.3814 17.2262 25.3394 17.255 25.3184C17.2509 25.373 17.2427 25.4276 17.2345 25.4864H17.2345ZM14.2902 25.1169C14.4917 25.0917 14.6973 25.0833 14.8988 25.0665V25.1505C14.7507 25.1589 14.6027 25.1715 14.4546 25.1841C14.4958 25.205 14.541 25.2303 14.5821 25.2513C14.5533 25.2722 14.4958 25.3101 14.467 25.3311C14.615 25.3226 14.7672 25.3101 14.9193 25.2975V25.3772C14.7219 25.3898 14.5246 25.4108 14.3272 25.4234C14.3231 25.4025 14.3231 25.3604 14.3189 25.3394C14.3518 25.3143 14.3847 25.2891 14.4176 25.2639C14.3518 25.2344 14.3025 25.1925 14.2901 25.1169L14.2902 25.1169ZM16.1941 24.7767H16.5025V24.8565H16.2763V25.0413H16.4614V25.1253H16.2763V25.3101H16.5025V25.3898H16.2023C16.19 25.1841 16.2065 24.9783 16.1941 24.7767L16.1941 24.7767ZM15.7788 24.7767H15.8569V25.0371H16.0008V24.7767H16.079C16.0419 24.9783 16.153 25.2639 16.0132 25.4066C16.0008 25.3143 16.0008 25.2177 16.0008 25.1211H15.8569C15.8569 25.2177 15.8569 25.3101 15.8487 25.4066C15.7006 25.2639 15.8116 24.9783 15.7788 24.7767H15.7788ZM15.3717 24.7767C15.4868 24.7431 15.8528 24.8103 15.5608 24.8607V25.3856H15.4827V24.8565H15.3717V24.7767V24.7767ZM16.9919 24.7642C17.1934 24.7222 17.3908 24.676 17.5922 24.6424C17.5922 24.8062 17.362 24.8314 17.2674 24.9363C17.3866 24.9112 17.5059 24.8859 17.6251 24.8608C17.6292 24.8817 17.6416 24.9195 17.6457 24.9405C17.4401 24.9615 17.2221 25.0875 17.0206 25.0287C17.1152 24.9195 17.2509 24.8566 17.366 24.7726C17.2468 24.7935 17.1316 24.8188 17.0124 24.844C17.0041 24.823 16.996 24.781 16.9919 24.7642H16.9919ZM14.3724 24.592C14.5164 24.4744 15.1538 24.6676 14.8741 24.9363C14.7096 24.9321 14.3765 24.9153 14.3354 24.7432C14.5081 24.7432 14.7343 24.9363 14.8741 24.8146C14.8042 24.6424 14.5246 24.6886 14.3724 24.592V24.592ZM14.5328 24.2728C14.5452 24.2561 14.5699 24.2224 14.578 24.2014C14.7179 24.3022 14.8618 24.403 15.0016 24.508C15.0427 24.445 15.0879 24.3862 15.1291 24.3232C15.1455 24.3358 15.1784 24.3568 15.1949 24.3652C15.1373 24.4534 15.0797 24.5374 15.0221 24.6214C14.8577 24.508 14.6973 24.3904 14.5328 24.2728H14.5328ZM17.2468 24.1553L17.3167 24.1133C17.3456 24.214 17.5429 24.3484 17.4113 24.424C17.3949 24.3988 17.3661 24.3484 17.3496 24.3232C17.2263 24.3988 17.1029 24.4786 16.9795 24.5542C16.996 24.5794 17.0207 24.6298 17.0371 24.655C17.0207 24.6634 16.9837 24.6844 16.9672 24.6928C16.9425 24.5962 16.7452 24.4618 16.8726 24.3821C16.8891 24.4072 16.922 24.4576 16.9343 24.4828C17.0577 24.4072 17.181 24.3275 17.3044 24.2519C17.288 24.2183 17.2674 24.1889 17.2468 24.1553V24.1553ZM16.519 24.1931C16.6465 24.0251 16.7698 23.8571 16.9055 23.6975C16.9672 23.7437 16.9672 23.8109 16.9508 23.8823C17.0125 23.8487 17.0782 23.8403 17.1358 23.8907C17.0083 24.0545 16.885 24.2225 16.7493 24.382C16.6424 24.2435 16.9179 24.1049 16.9713 23.9705C16.9302 23.9873 16.8891 23.9999 16.848 24.0167C16.8521 23.9831 16.8603 23.9159 16.8644 23.8823C16.7451 23.9621 16.6793 24.2645 16.519 24.1931L16.519 24.1931ZM14.8084 23.9075C14.8865 23.8361 14.9687 23.7689 15.0551 23.7059C15.1003 23.7647 15.0674 23.8109 15.014 23.8529C15.0839 24.0083 15.3676 24.1511 15.2854 24.3191C15.1661 24.1847 15.0592 24.0377 14.9482 23.8991C14.9194 23.9243 14.8906 23.9453 14.8618 23.9705C14.8495 23.9537 14.8248 23.9243 14.8084 23.9075V23.9075ZM16.1777 24.0713C16.3011 23.8991 16.3586 23.58 16.556 23.5254C16.4984 23.7269 16.556 24.0125 16.4162 24.1553C16.408 24.1259 16.3956 24.0629 16.3874 24.0335C16.3134 24.0125 16.2476 24.0629 16.1777 24.0713L16.1777 24.0713ZM15.273 23.5842C15.3676 23.5464 15.4622 23.5128 15.5567 23.4792C15.5608 23.496 15.5732 23.538 15.5814 23.5548C15.5567 23.5632 15.5033 23.5842 15.4786 23.5968C15.5279 23.7353 15.5773 23.8781 15.6266 24.0167C15.6595 24.0041 15.6965 23.9915 15.7294 23.9789C15.7377 23.9956 15.75 24.0377 15.7583 24.0544C15.6596 24.0923 15.5609 24.13 15.4581 24.1594C15.4458 24.0922 15.4745 24.0502 15.5444 24.0377C15.4951 23.8991 15.4457 23.7605 15.4005 23.6219C15.3717 23.6303 15.3183 23.6471 15.2936 23.6555L15.273 23.5842ZM15.9556 24.0461C15.6266 23.9537 15.8898 23.1054 16.1406 23.5842C15.8857 23.4246 15.8734 23.7059 15.9104 23.9411C15.9309 23.9495 15.972 23.9663 15.9885 23.9747C16.0049 23.9579 16.0378 23.9243 16.0584 23.9075L15.972 23.8949C15.972 23.8739 15.9761 23.8361 15.9761 23.8151H16.1365C16.1406 23.9201 16.0872 24.0629 15.9556 24.0461H15.9556ZM15.7993 23.1978C17.2016 23.0047 18.3448 24.6886 17.6827 25.9611C17.1399 27.2713 15.1743 27.4518 14.4177 26.255C13.5459 25.117 14.3888 23.2566 15.7993 23.1979V23.1978ZM15.6719 23.3196C14.7631 23.454 14.064 24.3862 14.1833 25.3185C14.2573 26.2004 15.0345 26.9437 15.9022 26.9605C17.107 27.0529 18.1021 25.6923 17.6663 24.5416C17.4031 23.7143 16.5107 23.16 15.6719 23.3196Z" fill="white"/>
<path d="M5.43694 27.2746C5.53152 27.241 5.62609 27.2074 5.72067 27.1738C6.0003 27.9717 6.25936 28.7822 6.52256 29.5885C6.42798 29.6263 6.3334 29.6598 6.23471 29.685C5.8605 29.2483 5.50273 28.799 5.13266 28.358C5.29715 28.8704 5.47809 29.3827 5.63435 29.8992C5.53978 29.9328 5.4452 29.9664 5.3465 30C5.06276 29.2021 4.80781 28.3958 4.54462 27.5938C4.63509 27.5476 4.73378 27.5182 4.83247 27.493C5.20668 27.9339 5.56445 28.3832 5.93452 28.8242C5.77415 28.3035 5.58909 27.7953 5.43693 27.2746L5.43694 27.2746ZM6.92966 26.7833C7.02013 26.7371 7.1106 26.7077 7.20929 26.6867C7.62463 27.43 8.04404 28.1775 8.45529 28.9208C8.3566 28.9628 8.2538 29.0005 8.15099 29.0257C8.10165 28.9334 8.0523 28.8452 7.99884 28.7528C7.83847 28.7948 7.68221 28.8536 7.52592 28.9124C7.53822 29.0173 7.55473 29.1223 7.56296 29.2273C7.46838 29.2651 7.36969 29.2987 7.271 29.3281C7.1353 28.4882 7.04072 27.6357 6.92969 26.7833H6.92966ZM7.38201 27.6777C7.37791 27.9801 7.4437 28.2782 7.4807 28.5806C7.59585 28.547 7.71098 28.5092 7.8179 28.463C7.69042 28.1943 7.5465 27.9297 7.38202 27.6777H7.38201ZM8.08519 26.3633C8.47584 26.2247 8.8624 26.0904 9.25304 25.9602C9.30239 26.0568 9.33118 26.1576 9.35585 26.2625C9.21193 26.3129 9.06388 26.3633 8.91997 26.4137C9.15026 27.1192 9.39699 27.8163 9.61081 28.526C9.51623 28.5596 9.42166 28.5932 9.32296 28.6226C9.06801 27.9255 8.85418 27.2158 8.61565 26.5145C8.47173 26.5649 8.3278 26.6237 8.17563 26.6615C8.13859 26.5649 8.10162 26.4683 8.08517 26.3633L8.08519 26.3633ZM10.865 25.4101C10.9596 25.3722 11.0583 25.3387 11.157 25.3051C11.3749 25.9518 11.6011 26.5985 11.7902 27.2536C11.8889 27.8919 10.9637 28.2321 10.6389 27.6819C10.3921 27.0394 10.1988 26.3717 9.97678 25.7166C10.0755 25.6788 10.1701 25.641 10.2729 25.62C10.4908 26.2415 10.6841 26.8714 10.902 27.4929C11.0542 27.7785 11.5394 27.6063 11.4695 27.2788C11.2803 26.653 11.0583 26.0358 10.865 25.41L10.865 25.4101ZM12.0699 25.4479C12.0328 24.7508 13.102 24.5702 13.2912 25.2379C13.2007 25.2883 13.102 25.3177 13.0033 25.3513C12.8594 24.9398 12.2056 25.2043 12.4235 25.6033C12.7237 25.9014 13.2007 25.935 13.5338 26.1912C13.7928 26.4431 13.7846 26.9219 13.4967 27.1486C13.1842 27.4426 12.6167 27.2788 12.5016 26.8631C12.5962 26.8252 12.6949 26.7917 12.7936 26.7623C12.9416 27.178 13.5872 26.8841 13.3651 26.4977C12.9704 26.1198 12.0986 26.1618 12.0698 25.4479L12.0699 25.4479Z" fill="white"/>
<path d="M9.34026 13.6303C9.41428 13.6471 9.4554 13.7101 9.49653 13.7647C11.713 16.6749 13.9623 19.56 16.1666 22.4827C14.789 22.9698 13.4032 23.4402 12.0215 23.9189C11.1127 22.7178 10.2039 21.521 9.31155 20.3074C9.31979 18.0859 9.32798 15.8602 9.34036 13.6303L9.34026 13.6303ZM4.50005 15.0371C5.93107 14.5458 7.35802 14.0418 8.79318 13.5589C8.79731 17.4013 8.76851 21.2436 8.75614 25.0903C7.36622 25.5732 5.98044 26.0562 4.58635 26.5307C4.54112 22.7008 4.52467 18.8667 4.5 15.0371H4.50005ZM12.1815 12.3579C13.5427 11.8876 14.8997 11.4088 16.261 10.9511C16.3103 14.4912 16.335 18.0353 16.3802 21.5796C16.3761 21.651 16.4049 21.7434 16.335 21.7896C14.9821 20.0258 13.6168 18.2705 12.2846 16.494C12.2393 15.1166 12.2106 13.735 12.1818 12.3577L12.1815 12.3579ZM16.7993 10.7453C17.4326 10.5353 18.0618 10.2918 18.695 10.107C21.0061 13.1348 23.3172 16.1669 25.6157 19.2029C24.2341 19.7026 22.8441 20.1729 21.4543 20.6559C21.0472 20.11 20.6524 19.564 20.2412 19.0223C19.1268 19.4045 18.0166 19.8118 16.898 20.1688C16.8898 19.4171 16.8816 18.6612 16.8734 17.9095C17.5436 17.6659 18.2222 17.4308 18.8924 17.1914C18.2098 16.2591 17.5066 15.3395 16.8405 14.3946C16.8199 13.1768 16.824 11.9589 16.7993 10.7453H16.7993ZM21.5118 9.08654C22.8976 8.60359 24.2834 8.12486 25.6692 7.65036C25.7145 11.245 25.7597 14.8524 25.7433 18.4471C24.3164 16.6246 22.9347 14.7642 21.5281 12.9248C21.5158 11.644 21.5117 10.3674 21.5117 9.08654H21.5118ZM26.2326 7.48657C27.6596 6.99102 29.0865 6.49132 30.5174 6C30.5339 9.84246 30.4886 13.6892 30.4845 17.5314C29.1028 18.0017 27.7253 18.5099 26.331 18.9508C26.3064 15.1294 26.257 11.3079 26.2323 7.48644L26.2326 7.48657Z" fill="#FFF200"/>
</svg>
