<svg width="36" height="36" viewBox="0 0 36 36" fill="none" xmlns="http://www.w3.org/2000/svg">
<rect width="36" height="36" fill="white"/>
<g clip-path="url(#clip0_159_1942)">
<path d="M18.8777 12.1797C18.8 12.1913 18.7254 12.4788 18.5754 12.6286C18.4658 12.7365 18.3286 12.73 18.256 12.8636C18.2284 12.9133 18.2373 12.9986 18.2061 13.0802C18.1447 13.244 17.9293 13.2585 17.9293 13.4368C17.9285 13.6294 18.1088 13.666 18.2653 13.8028C18.3874 13.9126 18.3991 13.9884 18.5468 14.0418C18.6732 14.0847 18.8609 13.944 19.03 13.9946C19.1686 14.036 19.3013 14.0659 19.3328 14.2093C19.3605 14.3416 19.3308 14.5462 19.1626 14.5226C19.1059 14.5161 18.8597 14.433 18.5579 14.4654C18.1932 14.507 17.7772 14.6266 17.7365 15.0356C17.714 15.2638 17.9952 15.5332 18.2666 15.4784C18.454 15.4415 18.3654 15.2188 18.4673 15.1109C18.6013 14.9723 19.3605 15.5942 20.0658 15.5942C20.3629 15.5942 20.5838 15.5186 20.8033 15.2876C20.8238 15.2698 20.8487 15.2321 20.8805 15.2295C20.9104 15.2321 20.9625 15.2618 20.9798 15.2743C21.5477 15.7335 21.9774 16.6549 24.0658 16.6654C24.3597 16.6672 24.6939 16.8083 24.9673 17.0588C25.211 17.2853 25.3532 17.638 25.4919 17.9956C25.701 18.5321 26.0753 19.0541 26.6433 19.6347C26.6741 19.6659 27.1418 20.0314 27.1792 20.0586C27.185 20.0628 27.2195 20.1451 27.2075 20.1911C27.1937 20.5396 27.1433 21.5521 27.8941 21.5981C28.0775 21.6073 28.0296 21.4775 28.0296 21.3885C28.0291 21.2119 27.9972 21.0367 28.0895 20.856C28.2158 20.6077 27.8214 20.4934 27.8328 19.9563C27.8411 19.5559 27.5065 19.6242 27.337 19.3192C27.2392 19.1425 27.1523 19.0488 27.1585 18.8326C27.1967 17.6162 26.9011 16.8168 26.7539 16.6205C26.6388 16.4724 26.5437 16.4136 26.6487 16.3451C27.2754 15.9286 27.4174 15.5417 27.4174 15.5417C27.7508 14.7541 28.0503 14.0348 28.4635 13.718C28.5466 13.6524 28.7601 13.4923 28.8909 13.4295C29.2766 13.2467 29.4793 13.1357 29.5915 13.0263C29.7684 12.8528 29.9087 12.4905 29.7387 12.271C29.5276 12.0002 29.1622 12.2151 29.0013 12.3113C27.8494 12.9986 27.6796 14.2113 27.2806 14.9078C26.9623 15.4641 26.4447 15.8728 25.9819 15.9062C25.6354 15.9321 25.2612 15.8615 24.8889 15.6971C23.9835 15.2979 23.4881 14.7825 23.3707 14.6913C23.1276 14.5025 21.2392 12.6379 19.7088 12.5618C19.7088 12.5618 19.5188 12.1792 19.4711 12.1731C19.3593 12.1586 19.2447 12.4014 19.1626 12.4298C19.0854 12.4554 18.9556 12.1669 18.8777 12.1797V12.1797ZM12.1412 23.3075C11.9972 23.304 11.8749 23.1853 11.8749 23.0384L11.8753 18.2381H10.302V23.5293C10.302 23.7888 10.5109 24.0002 10.7674 24.0002H13.5168C13.775 24.0002 13.9814 23.7888 13.9814 23.5293V18.2381H12.4096L12.4083 23.0384C12.4083 23.1853 12.286 23.304 12.1412 23.3075ZM17.4082 18.2381H15.0275C14.7454 18.2381 14.516 18.4685 14.516 18.7548V24.0002H16.0908V19.1887C16.091 19.1537 16.0981 19.1192 16.1116 19.087C16.125 19.0548 16.1447 19.0257 16.1694 19.0011C16.1941 18.9766 16.2234 18.9572 16.2556 18.944C16.2877 18.9309 16.3222 18.9242 16.3569 18.9245C16.5038 18.9245 16.6218 19.0385 16.625 19.1846V24.0002H18.1932V19.1846C18.1952 19.0385 18.313 18.9245 18.4598 18.9245C18.605 18.9245 18.7255 19.0412 18.7264 19.1886V24.0002H20.3013V18.7548C20.3013 18.4685 20.0711 18.2381 19.7894 18.2381L17.4082 18.2381ZM9.25275 22.5524H7.66329V24.0002H6.09106V18.2381H9.26272C9.54662 18.2381 9.76829 18.4701 9.76829 18.7571V22.033C9.76847 22.1011 9.75527 22.1687 9.72944 22.2318C9.7036 22.2948 9.66565 22.3521 9.61774 22.4004C9.56984 22.4486 9.51293 22.4869 9.45028 22.513C9.38764 22.5391 9.32048 22.5525 9.25267 22.5524L9.25275 22.5524ZM8.19693 19.1987C8.1974 19.1631 8.19088 19.1277 8.17773 19.0946C8.16459 19.0616 8.14508 19.0314 8.12033 19.006C8.09557 18.9805 8.06607 18.9602 8.03349 18.9462C8.00092 18.9322 7.96592 18.9248 7.93051 18.9245H7.66337V21.8388H7.93051C8.06937 21.8388 8.1982 21.7279 8.19693 21.5682V19.1987Z" fill="black"/>
<path d="M22.9408 23.9999V22.5533H22.4063V23.9999H20.8347V18.7545C20.8347 18.4683 21.0641 18.2378 21.3463 18.2378H24.0011C24.2837 18.2378 24.5129 18.4683 24.5129 18.7545V23.9999H22.9408ZM22.9408 21.8396V19.1863C22.9371 19.0397 22.8198 18.9271 22.673 18.9271C22.5276 18.9271 22.4078 19.0442 22.4063 19.1906V21.8396H22.9408Z" fill="black"/>
</g>
<defs>
<clipPath id="clip0_159_1942">
<rect width="24" height="12" fill="white" transform="translate(6 12)"/>
</clipPath>
</defs>
</svg>
