<svg width="271" height="96" viewBox="0 0 271 96" fill="none" xmlns="http://www.w3.org/2000/svg">
<g clip-path="url(#clip0_171_2491)">
<path fill-rule="evenodd" clip-rule="evenodd" d="M32.6988 57.1735L21.649 95.9471H254.6L270.891 38.7802H183.256L194.363 0.0552979C135.273 0.0552979 76.1837 0.103728 17.0941 0.103728L0.70166 57.1735H32.6988Z" fill="black"/>
<path d="M59.9867 45.5714L62.5645 36.5339H74.5779C80.9007 36.5339 84.7431 33.6673 86.494 27.5937L87.4667 24.2412C89.7041 16.5156 86.0562 11.7053 78.0797 11.7053H25.8433L16.1157 45.5714H59.9867ZM78.0311 20.7913L75.9884 28.1767H64.9963L67.0878 20.84H78.0311V20.7913Z" fill="#F8FF13"/>
<path d="M91.9414 45.5704L95.1514 39.8856H110.035V45.5704H119.811V11.6559H100.599L80.6089 45.5704H91.9414ZM105.998 20.8876H110.035V31.6742H99.8207L105.998 20.8876Z" fill="#F8FF13"/>
<path d="M159.693 27.2527L160.569 24.1916C162.806 16.3689 159.158 11.6559 151.182 11.6559H132.603L122.875 45.5704H133.04L135.716 36.2414H142.038L144.907 45.5704H155.364L152.3 35.6098C155.997 34.4923 158.428 31.7227 159.693 27.2527ZM140.141 20.7904H151.084L149.042 28.1273H138.05L140.141 20.7904Z" fill="#F8FF13"/>
<path d="M169.226 45.5704L178.953 11.6559H168.739L159.061 45.5704H169.226Z" fill="#F8FF13"/>
<path d="M106.922 50.3807L95.4432 63.9368L90.7254 50.3807H46.7086L37.0298 84.3438H80.9006L86.2507 65.5888L89.8013 76.0838H96.3674L105.852 64.9086L100.258 84.3438H110.424L120.102 50.3807H106.922Z" fill="#F8FF13"/>
<path d="M133.721 50.3807L113.682 84.2952H125.015L128.225 78.6104H143.108V84.2952H152.884V50.4293L133.721 50.3807ZM132.943 70.4476L139.071 59.661H143.108V70.4476H132.943Z" fill="#F8FF13"/>
<path d="M187.271 60.0983L190.044 50.3807H159.158L156.386 60.0983H167.572L160.618 84.3438H170.783L177.738 60.0983H187.271Z" fill="#F8FF13"/>
<path d="M200.841 60.0982H216.258L219.08 50.4291H202.64C196.317 50.4291 192.474 53.2959 190.724 59.3694L187.125 71.7594C184.839 79.6791 188.535 84.2951 196.512 84.2951H209.304L212.075 74.6261H196.658L200.841 60.0982Z" fill="#F8FF13"/>
<path d="M245.344 50.3807L241.841 62.5277H230.217L233.671 50.3807H223.505L213.826 84.3438H223.992L227.445 72.1969H239.069L235.617 84.3438H245.83L255.509 50.3807H245.344Z" fill="#F8FF13"/>
</g>
<defs>
<clipPath id="clip0_171_2491">
<rect width="270.302" height="96" fill="white" transform="translate(0.672852)"/>
</clipPath>
</defs>
</svg>
