<svg width="476" height="96" viewBox="0 0 476 96" fill="none" xmlns="http://www.w3.org/2000/svg">
<mask id="mask0_171_2477" style="mask-type:alpha" maskUnits="userSpaceOnUse" x="9" y="9" width="458" height="81">
<path fill-rule="evenodd" clip-rule="evenodd" d="M35.2698 57.6017H55.9563L48.3016 40.5701C47.8877 39.3234 47.4739 38.0768 47.06 36.6238C46.6462 35.3772 46.0269 33.715 45.613 32.0528C45.1963 33.5058 44.7853 35.168 44.3686 36.6238C43.7493 38.0768 43.3354 39.3234 42.9216 40.5701L35.2698 57.6017V57.6017ZM68.7797 87.094L60.3002 67.7783H30.7175L22.0296 87.094H9.41162L45.4047 9L81.6032 87.094H68.7797ZM163.93 90L130.628 12.1152H143.246L159.794 51.9961C160.827 54.2802 161.655 56.3551 162.277 58.4328C162.896 60.3013 163.519 62.1727 163.933 64.0413C164.346 62.1727 164.966 60.3013 165.588 58.2265C166.21 56.1516 167.035 54.0739 167.863 51.9961L184.616 12.1152H197.234L163.93 90V90ZM320.103 49.7092C320.103 45.9693 319.478 42.2294 318.028 38.9079C316.584 35.3771 314.723 32.4683 312.029 29.7687C309.549 27.0691 306.655 25.1977 303.344 23.7447C300.033 22.2917 296.514 21.667 292.998 21.667C289.279 21.667 285.763 22.2917 282.452 23.7447C279.141 24.9914 276.247 27.0691 273.556 29.7687C271.075 32.4683 269.006 35.3771 267.556 38.9079C266.318 42.2294 265.695 45.9693 265.695 49.7092C265.695 53.4491 266.32 56.9741 267.556 60.5077C269.006 63.832 271.073 66.9501 273.556 69.4405C276.247 72.1372 279.141 74.215 282.452 75.6708C285.763 76.9203 289.282 77.7485 292.998 77.7485C296.514 77.7485 300.033 76.9203 303.344 75.6708C306.449 74.215 309.549 72.1401 312.029 69.4405C314.72 66.9501 316.584 63.832 318.028 60.5077C319.478 56.9741 320.103 53.4491 320.103 49.7092ZM332.718 49.7092C332.718 55.1056 331.682 60.0921 329.824 64.8723C327.703 69.5812 324.759 73.8711 321.133 77.5393C317.203 81.2793 312.862 83.976 308.102 86.0537C303.291 87.9557 298.17 88.9431 293.001 88.9654C287.421 88.9654 282.455 87.9251 277.486 86.0537C272.731 83.976 268.387 81.2793 264.665 77.5393C260.735 73.7994 257.835 69.6468 255.974 64.8723C253.899 60.0904 252.843 54.9253 252.875 49.7092C252.875 44.3071 253.905 39.3205 255.974 34.5432C257.835 29.7658 260.735 25.6132 264.665 21.8762C268.39 18.1363 272.731 15.2303 277.486 13.3589C282.452 11.2812 287.418 10.453 293.001 10.453C298.172 10.453 303.347 11.2841 308.102 13.3589C313.068 15.2275 317.203 18.1363 321.133 21.8762C324.858 25.6132 327.749 29.7687 329.824 34.5432C331.734 39.3697 332.716 44.5157 332.718 49.7092ZM399.947 87.094V9L447.519 54.8992C448.763 56.1487 450.005 57.6017 451.449 59.0576C452.693 60.5077 454.14 62.1698 455.59 64.0384V12.1152H466.755V90L418.353 43.2697C417.114 42.023 415.872 40.7793 414.628 39.3234C413.389 37.8704 412.353 36.4174 411.117 34.9645V87.0969H399.947V87.094V87.094Z" fill="black"/>
</mask>
<g mask="url(#mask0_171_2477)">
<path fill-rule="evenodd" clip-rule="evenodd" d="M35.2698 57.6017H55.9563L48.3016 40.5701C47.8877 39.3234 47.4739 38.0768 47.06 36.6238C46.6462 35.3772 46.0269 33.715 45.613 32.0528C45.1963 33.5058 44.7853 35.168 44.3686 36.6238C43.7493 38.0768 43.3354 39.3234 42.9216 40.5701L35.2698 57.6017V57.6017ZM68.7797 87.094L60.3002 67.7783H30.7175L22.0296 87.094H9.41162L45.4047 9L81.6032 87.094H68.7797ZM163.93 90L130.628 12.1152H143.246L159.794 51.9961C160.827 54.2802 161.655 56.3551 162.277 58.4328C162.896 60.3013 163.519 62.1727 163.933 64.0413C164.346 62.1727 164.966 60.3013 165.588 58.2265C166.21 56.1516 167.035 54.0739 167.863 51.9961L184.616 12.1152H197.234L163.93 90V90ZM320.103 49.7092C320.103 45.9693 319.478 42.2294 318.028 38.9079C316.584 35.3771 314.723 32.4683 312.029 29.7687C309.549 27.0691 306.655 25.1977 303.344 23.7447C300.033 22.2917 296.514 21.667 292.998 21.667C289.279 21.667 285.763 22.2917 282.452 23.7447C279.141 24.9914 276.247 27.0691 273.556 29.7687C271.075 32.4683 269.006 35.3771 267.556 38.9079C266.318 42.2294 265.695 45.9693 265.695 49.7092C265.695 53.4491 266.32 56.9741 267.556 60.5077C269.006 63.832 271.073 66.9501 273.556 69.4405C276.247 72.1372 279.141 74.215 282.452 75.6708C285.763 76.9203 289.282 77.7485 292.998 77.7485C296.514 77.7485 300.033 76.9203 303.344 75.6708C306.449 74.215 309.549 72.1401 312.029 69.4405C314.72 66.9501 316.584 63.832 318.028 60.5077C319.478 56.9741 320.103 53.4491 320.103 49.7092ZM332.718 49.7092C332.718 55.1056 331.682 60.0921 329.824 64.8723C327.703 69.5812 324.759 73.8711 321.133 77.5393C317.203 81.2793 312.862 83.976 308.102 86.0537C303.291 87.9557 298.17 88.9431 293.001 88.9654C287.421 88.9654 282.455 87.9251 277.486 86.0537C272.731 83.976 268.387 81.2793 264.665 77.5393C260.735 73.7994 257.835 69.6468 255.974 64.8723C253.899 60.0904 252.843 54.9253 252.875 49.7092C252.875 44.3071 253.905 39.3205 255.974 34.5432C257.835 29.7658 260.735 25.6132 264.665 21.8762C268.39 18.1363 272.731 15.2303 277.486 13.3589C282.452 11.2812 287.418 10.453 293.001 10.453C298.172 10.453 303.347 11.2841 308.102 13.3589C313.068 15.2275 317.203 18.1363 321.133 21.8762C324.858 25.6132 327.749 29.7687 329.824 34.5432C331.734 39.3697 332.716 44.5157 332.718 49.7092ZM399.947 87.094V9L447.519 54.8992C448.763 56.1487 450.005 57.6017 451.449 59.0576C452.693 60.5077 454.14 62.1698 455.59 64.0384V12.1152H466.755V90L418.353 43.2697C417.114 42.023 415.872 40.7793 414.628 39.3234C413.389 37.8704 412.353 36.4174 411.117 34.9645V87.0969H399.947V87.094V87.094Z" fill="#EDF5FC"/>
</g>
</svg>
