<svg width="40" height="56" viewBox="0 0 40 56" fill="none" xmlns="http://www.w3.org/2000/svg">
<g filter="url(#filter0_d_594_225)">
<path d="M28 40C23.7565 40 19.6869 38.3143 16.6863 35.3137C13.6857 32.3131 12 28.2435 12 24C12 19.7565 13.6857 15.6869 16.6863 12.6863C19.6869 9.68571 23.7565 8 28 8L28 12.48C24.9447 12.48 22.0145 13.6937 19.8541 15.8541C17.6937 18.0145 16.48 20.9447 16.48 24C16.48 27.0553 17.6937 29.9855 19.8541 32.1459C22.0145 34.3063 24.9447 35.52 28 35.52L28 40Z" fill="#EDF5FC"/>
</g>
<defs>
<filter id="filter0_d_594_225" x="0" y="0" width="40" height="56" filterUnits="userSpaceOnUse" color-interpolation-filters="sRGB">
<feFlood flood-opacity="0" result="BackgroundImageFix"/>
<feColorMatrix in="SourceAlpha" type="matrix" values="0 0 0 0 0 0 0 0 0 0 0 0 0 0 0 0 0 0 127 0" result="hardAlpha"/>
<feOffset dy="4"/>
<feGaussianBlur stdDeviation="6"/>
<feComposite in2="hardAlpha" operator="out"/>
<feColorMatrix type="matrix" values="0 0 0 0 0.027451 0 0 0 0 0.0627451 0 0 0 0 0.0745098 0 0 0 0.24 0"/>
<feBlend mode="normal" in2="BackgroundImageFix" result="effect1_dropShadow_594_225"/>
<feBlend mode="normal" in="SourceGraphic" in2="effect1_dropShadow_594_225" result="shape"/>
</filter>
</defs>
</svg>
