<svg width="40" height="56" viewBox="0 0 40 56" fill="none" xmlns="http://www.w3.org/2000/svg">
<g filter="url(#filter0_d_594_228)">
<path d="M12 8C16.2435 8 20.3131 9.68571 23.3137 12.6863C26.3143 15.6869 28 19.7565 28 24C28 28.2435 26.3143 32.3131 23.3137 35.3137C20.3131 38.3143 16.2435 40 12 40L12 35.52C15.0553 35.52 17.9855 34.3063 20.1459 32.1459C22.3063 29.9855 23.52 27.0553 23.52 24C23.52 20.9447 22.3063 18.0146 20.1459 15.8541C17.9855 13.6937 15.0553 12.48 12 12.48L12 8Z" fill="#EDF5FC"/>
</g>
<defs>
<filter id="filter0_d_594_228" x="0" y="0" width="40" height="56" filterUnits="userSpaceOnUse" color-interpolation-filters="sRGB">
<feFlood flood-opacity="0" result="BackgroundImageFix"/>
<feColorMatrix in="SourceAlpha" type="matrix" values="0 0 0 0 0 0 0 0 0 0 0 0 0 0 0 0 0 0 127 0" result="hardAlpha"/>
<feOffset dy="4"/>
<feGaussianBlur stdDeviation="6"/>
<feComposite in2="hardAlpha" operator="out"/>
<feColorMatrix type="matrix" values="0 0 0 0 0.027451 0 0 0 0 0.0627451 0 0 0 0 0.0745098 0 0 0 0.24 0"/>
<feBlend mode="normal" in2="BackgroundImageFix" result="effect1_dropShadow_594_228"/>
<feBlend mode="normal" in="SourceGraphic" in2="effect1_dropShadow_594_228" result="shape"/>
</filter>
</defs>
</svg>
