<svg width="48" height="48" viewBox="0 0 48 48" fill="none" xmlns="http://www.w3.org/2000/svg">
<path fill-rule="evenodd" clip-rule="evenodd" d="M24 48C37.2548 48 48 37.2548 48 24C48 10.7452 37.2548 0 24 0C10.7452 0 0 10.7452 0 24C0 37.2548 10.7452 48 24 48Z" fill="#1576FB"/>
<path fill-rule="evenodd" clip-rule="evenodd" d="M29.694 48V32.2848H35.0222L35.8199 26.1336H29.694V22.2158C29.694 20.4391 30.1902 19.2284 32.7525 19.2284L36 19.227V13.7416C35.4349 13.667 33.4963 13.5 31.2408 13.5C26.532 13.5 23.3082 16.3581 23.3082 21.6069V26.1336H18V32.2848H23.3082V48H29.694Z" fill="#FFFFFE"/>
</svg>
