<svg width="36" height="36" viewBox="0 0 36 36" fill="none" xmlns="http://www.w3.org/2000/svg">
<rect width="36" height="36" fill="#D52B1E"/>
<g clip-path="url(#clip0_159_1894)">
<path fill-rule="evenodd" clip-rule="evenodd" d="M29.9885 27.9269C29.8829 23.0471 29.0551 18.3504 27.6567 14.7025C26.2473 11.0276 24.488 9.00342 22.7044 9.00342C21.596 9.00342 20.5549 9.76916 19.6085 11.2808C19.0224 12.2183 18.4762 13.4493 18.0012 14.8979C17.5248 13.4493 16.9796 12.2183 16.3925 11.2808C15.4471 9.76916 14.4055 9.00342 13.2971 9.00342C11.512 9.00342 9.75372 11.0276 8.34483 14.7025C6.9469 18.3504 6.11861 23.0471 6.01296 27.9264L6 28.4991H9.58178L9.58876 27.9463C9.72781 17.7512 12.2849 11.285 13.3265 11.285C14.0282 11.285 15.8214 15.7626 16.0935 26.8483L16.1074 27.3945H19.8941L19.9075 26.8483C20.1791 15.7626 21.9728 11.2846 22.6745 11.2846C23.7165 11.2846 26.2727 17.7508 26.4122 27.9458L26.4197 28.4991H30L29.9885 27.9269Z" fill="#F1BB00"/>
<path fill-rule="evenodd" clip-rule="evenodd" d="M29.7174 27.9317C29.6128 23.0793 28.7894 18.4143 27.4015 14.7938C26.0559 11.2798 24.3435 9.26465 22.7044 9.26465C20.9102 9.26465 19.2207 11.6319 18.0012 15.8047C16.7812 11.6324 15.0913 9.26512 13.2961 9.26512C11.658 9.26512 9.94509 11.2803 8.5985 14.7933C7.21103 18.4138 6.38872 23.0793 6.28407 27.9317L6.27759 28.2341H9.31415L9.31764 27.9416C9.45868 17.6097 12.0293 11.02 13.3265 11.02C14.4379 11.02 16.1119 16.5174 16.3651 26.8398L16.3731 27.1299H19.6289L19.6359 26.8398C19.8891 16.5179 21.5641 11.02 22.6745 11.02C23.9722 11.02 26.5428 17.6097 26.6833 27.9416L26.6873 28.2341H29.7239L29.7174 27.9317Z" fill="#F1BB00"/>
<path fill-rule="evenodd" clip-rule="evenodd" d="M13.2633 10.1445V10.7276C11.4926 10.9036 9.14174 18.4243 9.01267 27.9379L7.80811 26.767V26.7377C8.19085 17.4096 10.8681 10.2193 13.2633 10.145V10.1445Z" fill="#F1BB00"/>
<path fill-rule="evenodd" clip-rule="evenodd" d="M13.2014 9.56641H13.4072C15.1829 9.67999 16.8729 12.5376 17.9982 16.9522V25.4833C17.5596 16.6715 15.608 10.1433 13.3006 10.1433C12.8246 10.1433 12.3367 10.4273 11.8573 10.9545V10.132C12.3058 9.78505 12.7574 9.59102 13.2014 9.56641ZM23.5102 10.4046V11.2219C23.2241 10.8968 22.942 10.7235 22.6744 10.7235C20.965 10.7235 19.5531 17.7373 19.3303 26.834L18.0022 25.5424V25.5221C18.4358 16.6909 20.3899 10.1433 22.7008 10.1433C22.9679 10.1433 23.2391 10.2332 23.5102 10.4046Z" fill="#F1BB00"/>
<path fill-rule="evenodd" clip-rule="evenodd" d="M29.408 27.8002V27.9341L28.2004 26.7614L28.1955 26.7661C27.8436 18.1077 25.5147 11.2842 23.2676 10.2728V9.65283C26.1452 10.5591 29.1743 18.2194 29.4075 27.8002H29.408Z" fill="#F1BB00"/>
</g>
<defs>
<clipPath id="clip0_159_1894">
<rect width="24" height="19.5" fill="white" transform="translate(6 9)"/>
</clipPath>
</defs>
</svg>
