<svg width="187" height="144" viewBox="0 0 187 144" fill="none" xmlns="http://www.w3.org/2000/svg">
<g clip-path="url(#clip0_171_2492)">
<path fill-rule="evenodd" clip-rule="evenodd" d="M172.53 132.015C171.822 99.379 166.278 67.9678 156.911 43.5707C147.471 18.9931 135.688 5.45569 123.742 5.45569C116.318 5.45569 109.345 10.5769 103.006 20.6865C99.0804 26.9567 95.422 35.1893 92.2408 44.8779C89.0497 35.1893 85.3979 26.9567 81.4658 20.6865C75.1336 10.5769 68.1572 5.45569 60.7334 5.45569C48.7767 5.45569 37.0002 18.9931 27.5637 43.5707C18.2006 67.9678 12.6528 99.379 11.9452 132.012L11.8584 135.842H35.8486L35.8954 132.145C36.8267 63.9607 53.954 20.715 60.9304 20.715C65.6303 20.715 77.6404 50.6607 79.463 124.802L79.5564 128.454H104.919L105.009 124.802C106.828 50.6607 118.841 20.7118 123.541 20.7118C130.521 20.7118 147.642 63.9576 148.576 132.142L148.626 135.842H172.607L172.53 132.015Z" fill="#F1BB00"/>
<path fill-rule="evenodd" clip-rule="evenodd" d="M170.714 132.049C170.013 99.5967 164.499 68.3976 155.202 44.184C146.19 20.6825 134.72 7.2052 123.742 7.2052C111.725 7.2052 100.409 23.0374 92.2409 50.9448C84.0695 23.0406 72.7503 7.20837 60.7269 7.20837C49.7548 7.20837 38.2821 20.6857 29.2628 44.1808C19.9699 68.3944 14.4621 99.5967 13.7612 132.049L13.7178 134.072H34.0562L34.0796 132.116C35.0242 63.0168 52.2417 18.9448 60.9305 18.9448C68.3742 18.9448 79.5866 55.7115 81.2823 124.747L81.3357 126.687H103.143L103.19 124.747C104.885 55.7147 116.104 18.9448 123.541 18.9448C132.234 18.9448 149.451 63.0168 150.392 132.116L150.419 134.072H170.757L170.714 132.049Z" fill="#F1BB00"/>
<path fill-rule="evenodd" clip-rule="evenodd" d="M60.5065 13.0892V16.9887C48.6466 18.1662 32.9012 68.464 32.0367 132.09L23.9688 124.26V124.063C26.5323 61.6779 44.4641 13.5893 60.5065 13.0924V13.0892Z" fill="#F1BB00"/>
<path fill-rule="evenodd" clip-rule="evenodd" d="M60.0924 9.22131H61.471C73.3643 9.98096 84.6835 29.0923 92.2207 58.617V115.672C89.2832 56.7401 76.2116 13.0797 60.7567 13.0797C57.5689 13.0797 54.301 14.9788 51.0898 18.5048V13.0037C54.094 10.6836 57.1183 9.3859 60.0924 9.22131ZM129.139 14.8268V20.2931C127.223 18.1186 125.334 16.9602 123.541 16.9602C112.092 16.9602 102.635 63.8681 101.143 124.706L92.2474 116.068V115.932C95.1514 56.8698 108.24 13.0797 123.718 13.0797C125.507 13.0797 127.323 13.681 129.139 14.8268Z" fill="#F1BB00"/>
<path fill-rule="evenodd" clip-rule="evenodd" d="M168.641 131.169V132.065L160.553 124.222L160.52 124.253C158.163 66.3465 142.565 20.711 127.514 13.947V9.80066C146.787 15.862 167.076 67.0935 168.638 131.169H168.641Z" fill="#F1BB00"/>
</g>
<defs>
<clipPath id="clip0_171_2492">
<rect width="160.748" height="130.415" fill="white" transform="translate(11.8584 5.43396)"/>
</clipPath>
</defs>
</svg>
