<svg width="163" height="144" viewBox="0 0 163 144" fill="none" xmlns="http://www.w3.org/2000/svg">
<path d="M150.427 12.2413C148.658 10.0742 145.677 9.22609 142.946 9.60299C141.85 9.71605 140.773 9.99875 139.715 10.338C99.9461 23.0964 60.1565 35.7804 20.3873 48.5573C14.2142 50.5926 9.84877 56.5855 9.92581 62.9742C10.1758 83.0831 10.5219 103.21 10.8296 123.317C10.8873 127.482 12.5989 132.307 16.9257 133.89C21.2335 135.605 25.6181 133.362 29.6951 132.08C67.3114 119.529 104.946 106.979 142.561 94.4264C145.811 93.4087 148.965 91.5052 150.638 88.49C152.484 85.2862 152.696 81.5171 152.696 77.9177C152.772 58.9028 152.926 39.9062 153.003 20.8914C152.965 17.9137 152.446 14.6534 150.426 12.2411L150.427 12.2413Z" fill="black"/>
<path d="M143.448 9.08546C146.198 8.70856 149.217 9.57547 150.986 11.7428C153.025 14.1738 153.544 17.4531 153.582 20.5061C153.506 39.6722 153.352 58.8184 153.275 77.9846C153.275 81.603 153.044 85.4098 151.198 88.6324C149.506 91.6476 146.332 93.5889 143.044 94.6063C105.121 107.252 67.1973 119.897 29.274 132.561C25.1586 133.843 20.7547 136.104 16.4086 134.37C12.0623 132.769 10.3317 127.925 10.274 123.723C9.9663 103.444 9.62014 83.1675 9.37013 62.889C9.29328 56.4626 13.697 50.3944 19.9087 48.3591C59.9867 35.4876 100.102 22.6905 140.199 9.82064C141.237 9.48141 142.333 9.19875 143.449 9.08566L143.448 9.08546ZM144.025 10.4047C141.448 10.612 139.083 11.705 136.64 12.4212C98.3707 24.6709 60.1013 36.921 21.8319 49.1709C16.9471 50.4524 12.5625 54.1084 11.3318 59.0271C10.3318 62.4382 10.8895 66.0377 10.8319 69.5241C11.1011 86.994 11.3703 104.463 11.6203 121.933C11.601 125.137 11.928 128.642 14.1204 131.187C16.3318 133.787 20.2165 134.145 23.3127 133.128C63.1395 119.842 102.966 106.555 142.795 93.2691C145.526 92.3834 148.18 90.8192 149.737 88.3694C151.564 85.4482 151.834 81.9242 151.872 78.5696C151.911 58.82 152.199 39.0684 152.141 19.3187C152.295 14.89 149.16 9.65086 144.026 10.4049L144.025 10.4047Z" fill="white"/>
<path d="M86.9377 92.8908C87.38 92.6835 87.8608 92.5515 88.3416 92.4385C88.8992 96.2641 89.4377 100.109 89.9185 103.953C89.5146 104.142 89.0723 104.274 88.63 104.368C86.6299 101.032 84.7069 97.6398 82.7646 94.2854C83.2454 94.1534 83.7262 93.7389 84.2454 93.9274C85.4762 95.8874 86.4571 98.0168 87.8225 99.8825C87.6302 97.5456 87.2071 95.2276 86.9379 92.8907L86.9377 92.8908ZM91.6878 91.3266C93.5147 90.7235 95.3417 90.0828 97.1879 89.5363C97.3802 89.9697 97.534 90.4032 97.6494 90.8555C96.9763 91.1193 96.284 91.3266 95.611 91.5528C96.534 94.2476 97.4763 96.9237 98.3803 99.6186C99.0534 99.3924 99.7264 99.1474 100.419 98.959C100.63 99.3736 100.784 99.8259 100.899 100.297C99.0725 100.938 97.2456 101.56 95.3994 102.106C95.2261 101.673 95.0724 101.22 94.9378 100.768C95.6109 100.523 96.3032 100.316 96.9763 100.09C96.0532 97.3948 95.1301 94.6998 94.1878 92.0049C93.5147 92.2311 92.8416 92.4949 92.1494 92.6645C91.9571 92.2499 91.8224 91.7976 91.6878 91.3265L91.6878 91.3266ZM104.919 86.9356C105.361 86.7848 105.803 86.634 106.265 86.4833C107.592 90.064 108.765 93.6822 110.015 97.2817C109.592 97.5079 109.13 97.6398 108.669 97.734C106.938 95.774 105.265 93.7576 103.534 91.7976C104.284 94.0968 105.149 96.377 105.861 98.6951C105.419 98.8459 104.976 98.9967 104.515 99.1475C103.207 95.5668 102.015 91.9485 100.765 88.3489C101.188 88.1415 101.63 87.9908 102.092 87.8589C103.842 89.8189 105.515 91.8542 107.246 93.833C106.515 91.5338 105.649 89.2536 104.918 86.9355L104.919 86.9356ZM111.553 85.0698C112.957 83.581 115.822 84.2029 116.399 86.1817C115.957 86.3702 115.515 86.5021 115.072 86.634C114.496 85.1829 112.015 85.5598 112.207 87.2182C112.822 89.2723 113.553 91.2889 114.284 93.2865C115.188 94.6433 117.38 93.5126 116.938 91.9861C117.38 91.8353 117.803 91.7034 118.265 91.5715C119.649 94.9071 114.034 96.9237 112.822 93.6068C112.322 90.8554 109.457 87.7082 111.553 85.0699L111.553 85.0698ZM118.976 82.3372C120.822 81.7342 122.649 81.0746 124.515 80.5469C124.688 80.9803 124.842 81.4138 124.938 81.8661C123.572 82.3372 122.188 82.7707 120.822 83.2418C121.188 84.3537 121.592 85.4657 121.976 86.5964C123.13 86.2383 124.246 85.8049 125.399 85.5033C125.592 85.9368 125.746 86.3702 125.842 86.8414C124.726 87.256 123.572 87.6141 122.457 87.9721C122.823 89.1029 123.207 90.196 123.611 91.3077C124.996 90.8743 126.342 90.3843 127.746 89.9697C127.957 90.4032 128.092 90.8555 128.207 91.3077C126.4 91.9674 124.553 92.5327 122.707 93.1357C121.4 89.5551 120.207 85.9368 118.977 82.3371L118.976 82.3372ZM127.996 79.303C129.611 78.9449 131.323 77.6069 132.957 78.6057C134.957 79.5291 135.361 82.469 133.765 83.9201C134.919 85.3712 136.15 86.7846 137.265 88.2734C134.803 89.7057 133.919 85.8989 132.303 84.674C132.034 84.7682 131.765 84.8624 131.496 84.9378C132.015 86.5208 132.611 88.0661 133.092 89.668C132.649 89.8188 132.207 89.9883 131.765 90.1203C130.419 86.5584 129.246 82.9213 127.996 79.3029L127.996 79.303ZM129.861 80.2264C130.226 81.3383 130.63 82.4503 131.015 83.581C132.303 83.4302 133.707 82.3372 133.111 80.9427C132.611 79.5858 130.938 79.6235 129.861 80.2266V80.2264ZM137.149 76.3254C138.996 75.7412 140.803 75.0627 142.669 74.535C142.861 74.9685 142.996 75.4019 143.111 75.8542C141.726 76.3065 140.361 76.7776 138.976 77.2111C139.361 78.323 139.726 79.4538 140.13 80.5657C141.265 80.2076 142.38 79.8119 143.515 79.4538C143.746 79.8873 143.938 80.3396 143.957 80.8295C142.842 81.2065 141.707 81.5645 140.592 81.9603C140.976 83.0721 141.361 84.1841 141.745 85.2959C143.13 84.8625 144.495 84.3725 145.88 83.939C146.073 84.3725 146.246 84.8248 146.303 85.2959C144.476 85.9178 142.649 86.5586 140.803 87.1051C139.592 83.5244 138.322 79.9437 137.149 76.3254L137.149 76.3254Z" fill="white"/>
<path d="M74.3779 107.807C74.4933 107.807 74.7049 107.788 74.801 107.769C75.2818 108.843 75.801 109.917 76.2625 111.01C75.9164 111.142 75.6856 111.029 75.5703 110.709C75.3779 110.747 75.1664 110.784 74.9741 110.822C75.0509 111.18 74.8587 111.368 74.5125 111.406C74.4548 110.219 74.3972 109.013 74.3778 107.807L74.3779 107.807ZM74.8972 109.145C74.8972 109.559 74.9165 109.955 74.9165 110.37C75.0319 110.351 75.2819 110.294 75.4165 110.256C75.2433 109.898 75.0896 109.522 74.8973 109.145L74.8972 109.145ZM71.7241 107.486C72.301 107.656 72.8779 107.825 73.4548 108.014C73.4163 108.127 73.3588 108.334 73.3395 108.447C72.9164 108.315 72.4741 108.202 72.051 108.07C71.9356 108.41 71.8395 108.73 71.7241 109.069C72.0703 109.182 72.4356 109.295 72.7818 109.408C72.7432 109.521 72.6664 109.729 72.6279 109.842C72.2817 109.748 71.9163 109.635 71.5702 109.521C71.4742 109.861 71.3586 110.2 71.2625 110.52C71.6856 110.652 72.1087 110.784 72.5317 110.916C72.4932 111.029 72.4355 111.236 72.397 111.35C71.8201 111.18 71.2431 111.01 70.6662 110.822C71.0124 109.691 71.3585 108.579 71.7239 107.486L71.7241 107.486ZM79.3011 107.072C78.1857 106.563 79.8396 105.62 79.7242 106.808C79.6088 106.864 79.3973 106.996 79.3011 107.072ZM76.6473 106.563C76.7434 106.468 76.9358 106.299 77.032 106.224C77.8397 107.072 78.6666 107.901 79.4935 108.749C79.4167 108.824 79.2435 108.994 79.1474 109.069C78.5127 108.466 77.9165 107.788 77.282 107.185C77.3205 107.373 77.4167 107.769 77.4743 107.957C77.205 107.882 76.9358 107.806 76.6666 107.731C77.282 108.372 77.9166 109.013 78.5319 109.653C78.4166 109.766 78.3012 109.861 78.1858 109.974C77.3589 109.145 76.5319 108.297 75.7242 107.467C75.8011 107.373 75.9935 107.203 76.0704 107.109C76.3204 107.166 76.5704 107.241 76.8204 107.317C76.7627 107.053 76.705 106.808 76.6472 106.563H76.6473ZM70.2435 105.997C70.6666 106.412 71.0704 106.864 71.4743 107.317C71.3783 107.392 71.205 107.543 71.1089 107.618C70.955 107.467 70.8012 107.298 70.6666 107.147C69.8973 107.825 69.1473 108.523 68.3589 109.201C68.282 109.107 68.1281 108.937 68.0512 108.843C68.8012 108.146 69.5704 107.486 70.3397 106.808C70.205 106.638 70.0512 106.487 69.9166 106.318C69.9935 106.224 70.1666 106.073 70.2435 105.997L70.2435 105.997ZM79.5897 105.507C78.0897 105.564 78.6474 103.434 79.9551 104.132C81.1859 103.736 82.1091 105.564 80.5512 105.677C80.6474 105.319 81.0128 105.13 81.0897 104.772C80.4936 104.622 78.6667 103.962 79.1282 105.13C79.2629 105.036 79.5512 104.848 79.6858 104.754C79.6665 104.999 79.6281 105.244 79.5898 105.507H79.5897ZM65.8204 103.849C66.7627 103.736 67.7242 103.698 68.6665 103.623V104C67.9742 104.037 67.2819 104.094 66.5896 104.151C66.7819 104.245 66.9934 104.358 67.1857 104.452C67.051 104.546 66.7819 104.716 66.6473 104.81C67.3396 104.772 68.0511 104.716 68.7627 104.659V105.017C67.8397 105.074 66.9166 105.168 65.9934 105.225C65.9743 105.131 65.9743 104.942 65.9549 104.848C66.1088 104.735 66.2626 104.622 66.4165 104.509C66.1088 104.377 65.878 104.188 65.8203 103.849L65.8204 103.849ZM74.7243 102.322H76.1666V102.681H75.1089V103.51H75.9743V103.887H75.1089V104.716H76.1666V105.074H74.7628C74.7053 104.15 74.7821 103.227 74.7242 102.323L74.7243 102.322ZM72.7821 102.322H73.1474V103.491H73.8205V102.322H74.1859C74.0127 103.227 74.5321 104.509 73.8782 105.149C73.8205 104.735 73.8205 104.301 73.8205 103.868H73.1475C73.1475 104.301 73.1475 104.716 73.109 105.149C72.4166 104.509 72.9357 103.227 72.782 102.322H72.7821ZM70.8782 102.322C71.4166 102.172 73.1281 102.473 71.7628 102.699V105.055H71.3974V102.681H70.8782V102.323V102.322ZM78.4552 102.266C79.3975 102.078 80.3206 101.87 81.2629 101.72C81.2629 102.455 80.1859 102.568 79.7436 103.039C80.3013 102.926 80.859 102.813 81.4167 102.7C81.4359 102.794 81.4936 102.963 81.5127 103.058C80.5512 103.152 79.532 103.717 78.5896 103.453C79.0319 102.963 79.6665 102.681 80.2049 102.304C79.6472 102.398 79.1088 102.511 78.5511 102.624C78.5126 102.53 78.4742 102.341 78.4551 102.266H78.4552ZM66.2052 101.493C66.8782 100.966 69.8591 101.833 68.5514 103.039C67.7821 103.02 66.2243 102.944 66.0321 102.172C66.8398 102.172 67.8975 103.039 68.5514 102.492C68.2244 101.72 66.9167 101.927 66.2052 101.493ZM66.9552 100.061C67.0129 99.9858 67.1284 99.835 67.1667 99.7408C67.8205 100.193 68.4936 100.645 69.1474 101.116C69.3397 100.834 69.5512 100.57 69.7436 100.287C69.8204 100.344 69.9743 100.438 70.0513 100.476C69.782 100.872 69.5128 101.248 69.2436 101.625C68.4743 101.117 67.7243 100.589 66.9551 100.061H66.9552ZM79.6475 99.5335L79.9744 99.345C80.1092 99.7973 81.0321 100.4 80.4167 100.74C80.3399 100.627 80.2052 100.4 80.1283 100.287C79.5514 100.627 78.9744 100.985 78.3975 101.324C78.4744 101.437 78.5898 101.663 78.6667 101.776C78.5899 101.814 78.4167 101.908 78.3398 101.946C78.2244 101.512 77.3014 100.909 77.8975 100.551C77.9743 100.664 78.1283 100.891 78.186 101.004C78.7629 100.664 79.3398 100.306 79.9167 99.9671C79.8399 99.8163 79.7435 99.6844 79.6475 99.5336V99.5335ZM76.2437 99.7032C76.8399 98.9494 77.4168 98.1956 78.0514 97.4794C78.3399 97.6866 78.3399 97.9882 78.2629 98.3086C78.5514 98.1578 78.8591 98.1201 79.1283 98.3463C78.5322 99.0813 77.9552 99.8351 77.3206 100.551C76.8206 99.9293 78.1091 99.3074 78.3591 98.7045C78.1668 98.7798 77.9745 98.8365 77.7822 98.9117C77.8013 98.7609 77.8398 98.4594 77.859 98.3087C77.3013 98.6668 76.9936 100.024 76.2436 99.7033L76.2437 99.7032ZM68.2437 98.4217C68.6091 98.1013 68.9937 97.7998 69.3976 97.5171C69.6091 97.781 69.4553 97.9883 69.2053 98.1767C69.5322 98.874 70.8591 99.5148 70.4745 100.269C69.9168 99.6655 69.4168 99.0059 68.8975 98.384C68.7628 98.4971 68.6283 98.5913 68.4937 98.7044C68.436 98.6291 68.3207 98.4971 68.2437 98.4217ZM74.6476 99.1567C75.2245 98.384 75.4937 96.9518 76.4168 96.7067C76.1476 97.6113 76.4168 98.8928 75.763 99.5336C75.7244 99.4016 75.6668 99.119 75.6282 98.9871C75.2821 98.8928 74.9744 99.1191 74.6475 99.1568L74.6476 99.1567ZM70.4167 96.9706C70.859 96.801 71.3013 96.6502 71.7436 96.4994C71.7628 96.5747 71.8205 96.7633 71.859 96.8387C71.7436 96.8764 71.4936 96.9707 71.3782 97.0271C71.609 97.649 71.8397 98.2898 72.0705 98.9117C72.2244 98.8551 72.3975 98.7986 72.5513 98.7419C72.5898 98.8172 72.6473 99.0057 72.686 99.0811C72.2245 99.2509 71.7629 99.4203 71.2821 99.5522C71.2246 99.2507 71.359 99.0623 71.686 99.0057C71.4552 98.3838 71.2244 97.7619 71.0129 97.14C70.8782 97.1777 70.6283 97.253 70.5129 97.2908L70.4167 96.9706ZM73.6089 99.0436C72.0705 98.6291 73.3012 94.8222 74.4743 96.9706C73.282 96.2545 73.2243 97.5171 73.3974 98.5725C73.4936 98.6102 73.6859 98.6855 73.7628 98.7233C73.8396 98.648 73.9935 98.4971 74.0897 98.4217L73.6858 98.3652C73.6858 98.2709 73.705 98.1013 73.705 98.0071H74.455C74.4742 98.4783 74.2242 99.119 73.6089 99.0436H73.6089ZM72.8781 95.2368C79.4359 94.3699 84.7821 101.927 81.6859 107.637C79.1475 113.517 69.9549 114.328 66.4166 108.957C62.3396 103.849 66.2819 95.5008 72.8781 95.237V95.2368ZM72.282 95.7834C68.0319 96.3864 64.7626 100.57 65.3205 104.754C65.6666 108.712 69.3013 112.047 73.359 112.123C78.9936 112.537 83.6474 106.431 81.609 101.267C80.3783 97.5548 76.2051 95.0671 72.282 95.7834Z" fill="white"/>
<path d="M24.4176 113.532C24.86 113.381 25.3023 113.231 25.7446 113.08C27.0523 116.661 28.2638 120.298 29.4947 123.916C29.0523 124.086 28.61 124.236 28.1485 124.35C26.3985 122.39 24.7253 120.373 22.9947 118.394C23.7639 120.694 24.6101 122.993 25.3409 125.311C24.8986 125.461 24.4563 125.612 23.9947 125.763C22.6678 122.182 21.4755 118.564 20.2446 114.965C20.6677 114.757 21.1293 114.625 21.5908 114.512C23.3408 116.491 25.014 118.507 26.7446 120.486C25.9946 118.149 25.1292 115.869 24.4176 113.532L24.4176 113.532ZM31.3985 111.327C31.8216 111.12 32.2447 110.988 32.7062 110.894C34.6486 114.229 36.61 117.584 38.5332 120.92C38.0717 121.108 37.5909 121.278 37.1102 121.391C36.8794 120.976 36.6486 120.58 36.3986 120.166C35.6486 120.354 34.9178 120.618 34.187 120.882C34.2445 121.353 34.3217 121.824 34.3602 122.295C33.9179 122.465 33.4564 122.616 32.9948 122.748C32.3602 118.979 31.9179 115.153 31.3986 111.327H31.3985ZM33.514 115.341C33.4948 116.698 33.8024 118.036 33.9755 119.393C34.514 119.243 35.0524 119.073 35.5524 118.866C34.9563 117.66 34.2832 116.472 33.514 115.341H33.514ZM36.8024 109.443C38.6293 108.821 40.4371 108.218 42.264 107.634C42.4948 108.067 42.6294 108.519 42.7448 108.99C42.0717 109.217 41.3794 109.443 40.7064 109.669C41.7833 112.835 42.9372 115.963 43.9371 119.148C43.4948 119.299 43.0525 119.45 42.591 119.582C41.3987 116.453 40.3987 113.268 39.2832 110.121C38.6101 110.347 37.937 110.611 37.2254 110.781C37.0522 110.347 36.8792 109.914 36.8023 109.443L36.8024 109.443ZM49.8025 105.165C50.2448 104.995 50.7063 104.844 51.1679 104.694C52.1871 107.596 53.2448 110.498 54.1294 113.438C54.5909 116.302 50.2639 117.829 48.7448 115.36C47.591 112.477 46.6871 109.48 45.6486 106.54C46.1101 106.371 46.5525 106.201 47.0332 106.107C48.0525 108.896 48.9563 111.723 49.9756 114.512C50.6871 115.794 52.9565 115.021 52.6293 113.551C51.7447 110.743 50.7063 107.973 49.8023 105.165L49.8025 105.165ZM55.4371 105.335C55.2639 102.206 60.264 101.396 61.1486 104.392C60.7256 104.618 60.264 104.75 59.8025 104.901C59.1294 103.054 56.0717 104.242 57.0909 106.032C58.4947 107.37 60.7256 107.521 62.2832 108.67C63.4947 109.801 63.4563 111.949 62.11 112.967C60.6484 114.286 57.9946 113.551 57.4561 111.685C57.8984 111.516 58.36 111.365 58.8215 111.233C59.5138 113.099 62.5331 111.78 61.4946 110.046C59.6485 108.35 55.5716 108.538 55.4369 105.334L55.4371 105.335Z" fill="white"/>
<path d="M42.6715 52.3009C43.0177 52.3762 43.21 52.659 43.4023 52.904C53.7678 65.9641 64.287 78.9117 74.5954 92.0278C68.1531 94.2139 61.6724 96.3245 55.2104 98.4729C50.9604 93.083 46.7103 87.712 42.5373 82.2656C42.5758 72.2963 42.6141 62.308 42.672 52.301L42.6715 52.3009ZM20.0359 58.6142C26.7282 56.4093 33.4014 54.1479 40.1131 51.9806C40.1324 69.2243 39.9977 86.4673 39.9398 103.73C33.4398 105.897 26.9591 108.064 20.4395 110.194C20.2279 93.0067 20.151 75.8002 20.0356 58.6142H20.0359ZM55.959 46.5908C62.3245 44.4802 68.6706 42.3316 75.0369 40.2775C75.2676 56.1645 75.383 72.0692 75.5946 87.9751C75.5754 88.2955 75.7099 88.7101 75.383 88.9174C69.056 81.0022 62.6713 73.1247 56.4409 65.1525C56.2294 58.9712 56.0947 52.7709 55.9601 46.5898L55.959 46.5908ZM77.5544 39.3541C80.516 38.4119 83.4583 37.3188 86.4199 36.4895C97.2277 50.0772 108.036 63.6843 118.785 77.3091C112.324 79.5517 105.824 81.6624 99.324 83.8297C97.4201 81.3797 95.5738 78.9297 93.6508 76.4987C88.4393 78.2137 83.247 80.0417 78.0161 81.6436C77.9776 78.2702 77.9393 74.8781 77.9007 71.5047C81.0353 70.4116 84.2086 69.3563 87.3432 68.2821C84.1509 64.0984 80.8623 59.9713 77.7469 55.731C77.6507 50.2658 77.67 44.8006 77.5546 39.3541H77.5544ZM99.5928 31.9101C106.074 29.7428 112.554 27.5944 119.035 25.465C119.247 41.5968 119.459 57.7855 119.382 73.9175C112.709 65.7384 106.247 57.3898 99.6692 49.1351C99.6115 43.3872 99.5923 37.6582 99.5923 31.9101H99.5928ZM121.67 24.73C128.343 22.5061 135.016 20.2636 141.708 18.0587C141.785 35.3025 141.574 52.5655 141.554 69.808C135.093 71.9186 128.651 74.199 122.13 76.1778C122.015 59.0284 121.784 41.8789 121.669 24.7294L121.67 24.73Z" fill="#FFF200"/>
</svg>
