<svg width="122" height="171" viewBox="0 0 122 171" fill="none" xmlns="http://www.w3.org/2000/svg">
<path d="M35.064 69.7045L13.2927 101.511H38.6933L47.7643 88.2544L35.064 69.7045Z" fill="#EDF5FC"/>
<path d="M66.9157 60.2775L95.1381 19.0436H69.7375L54.2154 41.7231L25.6552 0H0.254578L96.2133 140.194H121.614L66.9157 60.2775Z" fill="#EDF5FC"/>
<path d="M88.7673 170.987H91.6462V166.822H100.779V165.346H91.6462V162.657H100.779V161.181H88.7673V170.987Z" fill="#EDF5FC"/>
<path d="M112.29 161.181L108.845 164.64L105.395 161.181H102.516L107.405 166.086L102.516 170.987H105.395L108.845 167.527L112.29 170.987H115.168L110.28 166.086L115.168 161.181H112.29Z" fill="#EDF5FC"/>
<path d="M75.0226 170.987H87.0296V169.515H77.9015V166.822H87.0296V165.346H77.9015V162.657H87.0296V161.181H75.0226V170.987Z" fill="#EDF5FC"/>
<path d="M72.3369 165.83C72.6672 165.594 72.934 165.279 73.1136 164.914C73.2222 164.625 73.2801 164.319 73.2848 164.01C73.2807 163.691 73.2228 163.375 73.1136 163.076C72.9358 162.712 72.6684 162.399 72.3369 162.168C71.8599 161.828 71.3219 161.584 70.7526 161.449C69.8686 161.26 68.9664 161.17 68.0625 161.181H60.4309V171H63.3054V166.835H66.6801L70.4059 171H73.2848L69.4975 166.747C69.9223 166.706 70.3434 166.632 70.757 166.527C71.3262 166.408 71.8644 166.17 72.3369 165.83ZM70.3269 164.433C70.242 164.61 70.1136 164.761 69.9539 164.874C69.7286 165.037 69.4712 165.149 69.1991 165.204C68.778 165.305 68.3461 165.352 67.9133 165.345H63.3054V162.657H67.9133C68.3454 162.649 68.777 162.692 69.1991 162.785C69.471 162.848 69.7277 162.965 69.9539 163.129C70.1143 163.24 70.2428 163.392 70.3269 163.569C70.377 163.711 70.4037 163.86 70.4059 164.01C70.4036 164.155 70.3769 164.298 70.3269 164.433Z" fill="#EDF5FC"/>
<path d="M49.3105 161.181L42.9911 171H45.9577L47.5551 168.312H54.0106L55.608 171H58.6799L52.3825 161.181H49.3105ZM48.4328 166.822L50.7587 162.856H50.8289L53.1329 166.822H48.4328Z" fill="#EDF5FC"/>
<path d="M29.2463 170.987H41.2532V169.515H32.1207V166.822H41.2532V165.346H32.1207V162.657H41.2532V161.181H29.2463V170.987Z" fill="#EDF5FC"/>
<path d="M21.5972 167.831L18.5647 161.181H15.6859L12.6534 167.831L9.62098 161.181H6.74213L11.214 170.987H14.0928L17.1253 164.336L20.1577 170.987H23.0366L27.5041 161.181H24.6296L21.5972 167.831Z" fill="#EDF5FC"/>
</svg>
