<svg width="224" height="120" viewBox="0 0 224 120" fill="none" xmlns="http://www.w3.org/2000/svg">
<path d="M118.991 9.32284C119.39 8.53633 119.714 7.89917 120.044 7.84762C120.369 7.79397 120.8 8.35847 121.232 8.92526C121.687 9.52135 122.144 10.1202 122.483 10.0059C122.77 9.90677 123.103 9.49914 123.462 9.05984C123.982 8.42317 124.557 7.71998 125.124 7.79281C125.533 7.84785 127.158 11.1446 127.158 11.1446C138.585 11.7177 152.349 24.0336 157.053 28.2424C157.739 28.8565 158.232 29.298 158.497 29.5052C158.649 29.6245 158.875 29.8279 159.177 30.0992C160.864 31.6167 164.913 35.2587 171.487 38.179C174.673 39.596 177.873 40.2042 180.842 39.9811C184.802 39.6931 189.23 36.1697 191.954 31.3719C192.87 29.7612 193.644 27.8303 194.478 25.7524C196.752 20.0835 199.464 13.3207 206.677 8.98321C208.057 8.15509 211.183 6.30121 212.99 8.63719C214.443 10.5299 213.245 13.6519 211.729 15.1498C210.771 16.0947 209.034 17.049 205.735 18.6246C204.615 19.1683 202.788 20.5496 202.076 21.1127C198.599 23.7989 196.06 29.8457 193.264 36.5072L193.126 36.8362C193.126 36.8362 191.909 40.1752 186.548 43.7631C185.841 44.2286 186.192 44.642 186.853 45.4182C187.032 45.6295 187.235 45.8677 187.445 46.1411C188.707 47.8332 191.236 54.7245 190.91 65.2131C190.866 66.7264 191.348 67.5441 191.979 68.6137C192.125 68.8615 192.279 69.1228 192.436 69.4095C193.032 70.4887 193.865 71.026 194.636 71.5229C195.743 72.2369 196.721 72.8675 196.68 74.9031C196.628 77.3467 197.544 78.7755 198.262 79.8949C198.904 80.8963 199.388 81.6501 198.877 82.6614C198.245 83.9016 198.292 85.1131 198.338 86.3236C198.35 86.632 198.362 86.9403 198.362 87.249C198.362 87.3792 198.374 87.5193 198.386 87.6619C198.445 88.3631 198.509 89.1248 197.203 89.0576C190.862 88.6679 191.2 80.1542 191.324 77.0471L191.328 76.9284C191.43 76.5306 191.137 75.8188 191.086 75.7865C190.766 75.5503 186.765 72.399 186.5 72.1305C181.641 67.1223 178.435 62.6219 176.647 57.9952C175.462 54.9119 174.242 51.8742 172.157 49.92C169.82 47.7588 166.956 46.5422 164.443 46.5294C149.949 46.4533 144.792 41.2145 140.767 37.1247C139.829 36.1717 138.952 35.2811 138.033 34.5327C137.886 34.4227 137.439 34.1672 137.184 34.1477C136.985 34.162 136.816 34.3421 136.671 34.497C136.619 34.553 136.57 34.6057 136.523 34.6461C134.645 36.6391 132.755 37.2893 130.213 37.2893C126.814 37.2893 123.269 35.5896 120.616 34.3175C118.557 33.3304 117.035 32.6007 116.535 33.1222C116.179 33.5007 116.094 34.0418 116.01 34.5725C115.887 35.3486 115.767 36.1025 114.814 36.2928C112.492 36.7652 110.088 34.4422 110.279 32.4719C110.627 28.9483 114.188 27.9166 117.307 27.5573C119.365 27.336 121.117 27.7452 121.992 27.9496C122.217 28.0021 122.384 28.0412 122.483 28.0524C123.923 28.2561 124.175 26.4897 123.939 25.3509C123.688 24.1948 122.677 23.8937 121.576 23.5656C121.5 23.543 121.423 23.5202 121.346 23.497C120.583 23.2665 119.775 23.4965 119.024 23.7104C118.352 23.9018 117.724 24.0804 117.215 23.9046C116.383 23.6025 116.054 23.2165 115.63 22.718C115.409 22.4584 115.161 22.1684 114.804 21.8438C114.407 21.4945 113.992 21.2209 113.605 20.9656C112.686 20.36 111.923 19.8569 111.927 18.6894C111.927 17.8424 112.488 17.4239 113.079 16.9827C113.56 16.6234 114.061 16.2491 114.296 15.6159C114.429 15.2659 114.478 14.9087 114.521 14.585C114.565 14.2565 114.605 13.9625 114.724 13.7458C115.081 13.0862 115.617 12.8234 116.187 12.5444C116.612 12.3361 117.056 12.1187 117.457 11.7205C118.103 11.0707 118.586 10.12 118.991 9.32284Z" fill="#EDF5FC"/>
<path d="M60.1169 101.475C60.1169 102.743 61.1641 103.769 62.3967 103.798C63.6355 103.769 64.6829 102.743 64.6829 101.475L64.6957 60.0886H78.1448V105.71C78.1448 107.945 76.3788 109.77 74.1694 109.77H50.6398C48.4462 109.77 46.6583 107.945 46.6583 105.71V60.0886H60.1201L60.1169 101.475Z" fill="#EDF5FC"/>
<path d="M87.0948 60.0886H127.847C130.258 60.0886 132.225 62.075 132.225 64.5436V109.77H118.75V68.2837C118.741 67.0122 117.713 66.006 116.467 66.006C115.212 66.006 114.203 66.9894 114.187 68.2479V109.77H100.767V68.2484C100.738 66.9897 99.7295 66.0062 98.4714 66.0062C97.2196 66.0062 96.2043 67.0124 96.1946 68.2839V109.77H82.7204V64.5436C82.7204 62.075 84.6841 60.0886 87.0948 60.0886Z" fill="#EDF5FC"/>
<path fill-rule="evenodd" clip-rule="evenodd" d="M24.077 97.285H37.6762C40.1189 97.285 42.0888 95.289 42.0888 92.8107V64.5631C42.0888 62.088 40.1923 60.0886 37.7626 60.0886H10.6216V109.77H24.077V97.285ZM26.3632 66.006C27.5415 66.006 28.6526 66.9894 28.643 68.371V88.8022C28.6529 90.177 27.5511 91.1347 26.3632 91.1347H24.077V66.006H26.3632Z" fill="#EDF5FC"/>
<path fill-rule="evenodd" clip-rule="evenodd" d="M179.702 107.421H181.309L179.07 104.474L179.166 104.438C179.987 104.196 180.574 103.384 180.574 102.468C180.574 101.096 179.578 100.378 177.704 100.378H176.324V107.421H177.636V104.636L179.702 107.421ZM179.291 102.484C179.291 103.157 178.799 103.494 177.863 103.494H177.636V101.578H177.905C178.815 101.578 179.291 101.886 179.291 102.484Z" fill="#EDF5FC"/>
<path fill-rule="evenodd" clip-rule="evenodd" d="M178.486 110C181.791 110 184.46 107.256 184.46 103.882C184.46 100.469 181.791 97.7704 178.387 97.7704C175.146 97.7704 172.464 100.553 172.464 103.882C172.464 107.276 175.146 110 178.486 110ZM173.425 103.898C173.425 101.028 175.695 98.6601 178.4 98.6601H178.486C181.254 98.6601 183.496 101.022 183.496 103.898C183.496 106.778 181.254 109.126 178.486 109.126C175.695 109.126 173.425 106.778 173.425 103.898Z" fill="#EDF5FC"/>
<path fill-rule="evenodd" clip-rule="evenodd" d="M154.816 97.298V109.77L168.271 109.77V64.5436C168.271 62.075 166.308 60.0885 163.89 60.0885H141.169C138.758 60.0885 136.795 62.075 136.795 64.5436V109.77H150.244V97.298H154.816ZM154.816 68.2676V91.1444H150.244V68.3031C150.253 67.0412 151.281 66.0319 152.523 66.0319C153.778 66.0319 154.784 67.0024 154.816 68.2676Z" fill="#EDF5FC"/>
</svg>
