<svg width="121" height="120" viewBox="0 0 121 120" fill="none" xmlns="http://www.w3.org/2000/svg">
<g clip-path="url(#clip0_176_537)">
<path d="M33.2718 18.9507C28.1588 21.9044 28.364 31.581 28.364 31.581C49.1766 33.1479 94.8213 42.269 95.5044 42.4055L95.5122 42.4071V37.2184C90.3821 36.0923 60.9353 31.2014 60.9353 31.2014C58.9276 30.9052 57.143 28.8754 60.9353 28.5732C66.2796 28.1462 95.5122 30.6789 95.5122 30.6789C95.5122 29.776 95.0668 17.1473 95.0668 17.1473C55.803 12.1849 39.5181 15.343 33.2718 18.9507Z" fill="#CC2229"/>
<path d="M95.5114 47.1416C79.8965 43.3084 28.1417 35.1887 28.1417 35.1887L28.364 38.5716C42.8643 39.9248 95.5114 51.8784 95.5114 51.8784V47.1416Z" fill="#CC2229"/>
<path d="M95.5114 56.8401C79.0042 50.3005 28.364 42.4071 28.364 42.4071L28.5878 45.5629C37.5118 46.6898 65.1739 54.3577 65.1739 54.3577C67.4054 55.7117 67.404 57.5166 63.8354 57.0648C57.6018 56.277 29.034 54.1322 29.034 54.1322C28.3648 60.223 29.034 72.627 29.034 72.627C54.9121 75.7843 83.8369 75.8881 91.4967 71.0483C96.8499 67.6654 95.5114 56.8401 95.5114 56.8401Z" fill="#CC2229"/>
<path d="M57.9573 91.3457V94.0521H37.8807V97.6597H56.8419V100.365H37.8807V103.975H57.9573V106.681H31.6337V91.3457H57.9573Z" fill="#CC2229"/>
<path d="M7.50672 97.6597C9.29063 97.6597 21.4493 98.1115 21.4493 98.1115C23.4563 98.3378 25.3525 98.9001 25.3525 102.395C25.3525 106.116 21.8947 106.679 20.7027 106.679H-1.30573V103.973H17.8792C18.8831 103.973 19.4408 103.409 19.4408 102.508C19.4408 101.025 17.3215 100.816 17.3215 100.816C16.6878 100.816 14.9148 100.723 12.808 100.613C9.72402 100.452 5.92477 100.253 3.93668 100.253C0.590462 100.253 -1.52881 99.3504 -1.52881 95.6292C-1.52881 91.1187 4.55684 91.345 4.55684 91.345H24.9413V94.0513H7.61826C6.16005 94.0573 4.49513 94.1686 4.49513 95.4045C4.49513 97.2079 5.72207 97.6597 7.50672 97.6597Z" fill="#CC2229"/>
<path d="M98.2465 91.3796H125.418V94.582H114.605V106.681H108.83V94.582H98.2465V91.3796Z" fill="#CC2229"/>
<path fill-rule="evenodd" clip-rule="evenodd" d="M64.8386 95.7435C64.8386 93.3762 67.6315 91.3457 70.5271 91.3457L91.6403 91.3465V106.681H86.2863V100.93H70.1925V106.753H64.8371L64.8386 95.7435ZM70.1925 97.0967V98.2236H86.2856V94.2783H73.3157C71.3072 94.2783 70.1925 95.9142 70.1925 97.0967Z" fill="#CC2229"/>
</g>
<defs>
<clipPath id="clip0_176_537">
<rect width="120" height="118.938" fill="white" transform="translate(0.612305 0.531006)"/>
</clipPath>
</defs>
</svg>
